<svg width="24" height="20" viewBox="0 0 24 20" fill="none" xmlns="http://www.w3.org/2000/svg">
<path d="M22.3402 8.6429L22.3327 8.63962L2.31328 0.336184C2.14489 0.265707 1.96166 0.238066 1.77998 0.255736C1.5983 0.273405 1.42383 0.335832 1.27218 0.437434C1.11196 0.542419 0.980353 0.685591 0.889201 0.854067C0.798049 1.02254 0.750212 1.21104 0.749995 1.40259V6.71306C0.750084 6.97493 0.841522 7.22856 1.00855 7.43024C1.17558 7.63192 1.40773 7.76902 1.66499 7.8179L12.5836 9.83681C12.6265 9.84494 12.6652 9.8678 12.6931 9.90143C12.7209 9.93506 12.7362 9.97736 12.7362 10.021C12.7362 10.0647 12.7209 10.107 12.6931 10.1406C12.6652 10.1743 12.6265 10.1971 12.5836 10.2052L1.66546 12.2242C1.40827 12.2729 1.17613 12.4098 1.00903 12.6113C0.841927 12.8128 0.750322 13.0663 0.749995 13.3281V18.6395C0.74987 18.8224 0.79516 19.0025 0.881801 19.1636C0.968442 19.3246 1.09372 19.4617 1.2464 19.5624C1.43006 19.6845 1.64559 19.7497 1.86609 19.7499C2.01938 19.7498 2.1711 19.719 2.31234 19.6595L22.3312 11.4034L22.3402 11.3992C22.6096 11.2833 22.8392 11.0911 23.0006 10.8461C23.1619 10.6012 23.2479 10.3143 23.2479 10.021C23.2479 9.72773 23.1619 9.44086 23.0006 9.19592C22.8392 8.95098 22.6096 8.75871 22.3402 8.6429Z" fill="#E1E1E6"/>
</svg>
